<?xml version="1.0" encoding="UTF-8"?>
<svg id="Layer_1" xmlns="http://www.w3.org/2000/svg" xmlns:xlink="http://www.w3.org/1999/xlink" version="1.1" viewBox="0 0 48 48">
  <defs>
    <style>
      .st0 {
        fill: url(#linear-gradient3);
      }

      .st1 {
        fill: url(#linear-gradient5);
      }

      .st2 {
        fill: url(#linear-gradient4);
      }

      .st3 {
        stroke: url(#linear-gradient1);
      }

      .st3, .st4, .st5 {
        fill: none;
        stroke-linecap: round;
        stroke-width: 4px;
      }

      .st4 {
        stroke: url(#linear-gradient2);
      }

      .st5 {
        stroke: url(#linear-gradient);
      }
    </style>
    <linearGradient id="linear-gradient" x1="-164.82" y1="62.05" x2="-163.74" y2="60.96" gradientTransform="translate(4009.39 68) scale(24.22 -1)" gradientUnits="userSpaceOnUse">
      <stop offset="0" stop-color="#14b8a6"/>
      <stop offset=".5" stop-color="#10b981"/>
      <stop offset="1" stop-color="#84cc16"/>
    </linearGradient>
    <linearGradient id="linear-gradient1" x1="-163.05" y1="61.08" x2="-161.84" y2="59.86" gradientTransform="translate(2301 74) scale(14 -1)" gradientUnits="userSpaceOnUse">
      <stop offset="0" stop-color="#14b8a6"/>
      <stop offset=".5" stop-color="#10b981"/>
      <stop offset="1" stop-color="#84cc16"/>
    </linearGradient>
    <linearGradient id="linear-gradient2" x1="-161.3" y1="60.07" x2="-160.1" y2="58.88" gradientTransform="translate(1951 80) scale(12 -1)" gradientUnits="userSpaceOnUse">
      <stop offset="0" stop-color="#14b8a6"/>
      <stop offset=".5" stop-color="#10b981"/>
      <stop offset="1" stop-color="#84cc16"/>
    </linearGradient>
    <linearGradient id="linear-gradient3" x1="-164.76" y1="40.75" x2="-163.92" y2="39.91" xlink:href="#linear-gradient"/>
    <linearGradient id="linear-gradient4" x1="-162.99" y1="39.78" x2="-162.02" y2="38.81" gradientTransform="translate(2301 74) scale(14 -1)" xlink:href="#linear-gradient"/>
    <linearGradient id="linear-gradient5" x1="-161.23" y1="38.77" x2="-160.29" y2="37.83" gradientTransform="translate(1951 80) scale(12 -1)" xlink:href="#linear-gradient"/>
  </defs>
  <line class="st5" x1="5.42" y1="6.22" x2="44.07" y2="6.22"/>
  <line class="st3" x1="5.42" y1="13.23" x2="39.61" y2="13.23"/>
  <line class="st4" x1="5.42" y1="20.23" x2="32.63" y2="20.23"/>
  <path class="st0" d="M44.07,29.46H5.42c-1.1,0-2-.9-2-2s.9-2,2-2h38.65c1.1,0,2,.9,2,2s-.9,2-2,2Z"/>
  <path class="st2" d="M39.61,36.46H5.42c-1.1,0-2-.9-2-2s.9-2,2-2h34.19c1.1,0,2,.9,2,2s-.9,2-2,2Z"/>
  <path class="st1" d="M32.63,43.46H5.42c-1.1,0-2-.9-2-2s.9-2,2-2h27.21c1.1,0,2,.9,2,2s-.9,2-2,2Z"/>
</svg>
